<mxfile host="65bd71144e">
    <diagram id="cbWBlNAAMgDNovUi8rYh" name="Page-1">
        <mxGraphModel dx="3027" dy="387" grid="1" gridSize="10" guides="1" tooltips="1" connect="1" arrows="1" fold="1" page="1" pageScale="1" pageWidth="2000" pageHeight="2000" math="0" shadow="0">
            <root>
                <mxCell id="0"/>
                <mxCell id="1" parent="0"/>
                <mxCell id="2" value="" style="rounded=1;whiteSpace=wrap;html=1;" parent="1" vertex="1">
                    <mxGeometry x="30" y="20" width="910" height="60" as="geometry"/>
                </mxCell>
                <mxCell id="3" value="" style="endArrow=none;html=1;" parent="1" edge="1">
                    <mxGeometry width="50" height="50" relative="1" as="geometry">
                        <mxPoint x="150" y="80" as="sourcePoint"/>
                        <mxPoint x="150" y="20" as="targetPoint"/>
                    </mxGeometry>
                </mxCell>
                <mxCell id="4" value="" style="endArrow=none;html=1;" parent="1" edge="1">
                    <mxGeometry width="50" height="50" relative="1" as="geometry">
                        <mxPoint x="400" y="80" as="sourcePoint"/>
                        <mxPoint x="400" y="20" as="targetPoint"/>
                    </mxGeometry>
                </mxCell>
                <mxCell id="5" value="&lt;font style=&quot;font-size: 36px;&quot;&gt;Logo&lt;/font&gt;" style="text;html=1;align=center;verticalAlign=middle;resizable=0;points=[];autosize=1;strokeColor=none;fillColor=none;" parent="1" vertex="1">
                    <mxGeometry x="50" y="20" width="100" height="60" as="geometry"/>
                </mxCell>
                <mxCell id="8" value="" style="rounded=0;whiteSpace=wrap;html=1;" parent="1" vertex="1">
                    <mxGeometry x="410" y="35" width="250" height="20" as="geometry"/>
                </mxCell>
                <mxCell id="10" value="log in" style="rounded=1;whiteSpace=wrap;html=1;" vertex="1" parent="1">
                    <mxGeometry x="820" y="20" width="120" height="30" as="geometry"/>
                </mxCell>
                <mxCell id="12" value="sign up" style="rounded=1;whiteSpace=wrap;html=1;" vertex="1" parent="1">
                    <mxGeometry x="820" y="50" width="120" height="30" as="geometry"/>
                </mxCell>
                <mxCell id="13" value="Home.&amp;nbsp; &amp;nbsp; &amp;nbsp;Shop.&amp;nbsp; &amp;nbsp; &amp;nbsp;Contact.&amp;nbsp; About" style="text;html=1;align=center;verticalAlign=middle;resizable=0;points=[];autosize=1;strokeColor=none;fillColor=none;" vertex="1" parent="1">
                    <mxGeometry x="175" y="35" width="210" height="30" as="geometry"/>
                </mxCell>
                <mxCell id="15" value="" style="endArrow=none;html=1;" edge="1" parent="1">
                    <mxGeometry width="50" height="50" relative="1" as="geometry">
                        <mxPoint x="680" y="80" as="sourcePoint"/>
                        <mxPoint x="680" y="20" as="targetPoint"/>
                    </mxGeometry>
                </mxCell>
                <mxCell id="16" value="Fav" style="text;html=1;align=center;verticalAlign=middle;resizable=0;points=[];autosize=1;strokeColor=none;fillColor=none;" vertex="1" parent="1">
                    <mxGeometry x="680" y="35" width="40" height="30" as="geometry"/>
                </mxCell>
                <mxCell id="17" value="" style="endArrow=none;html=1;" edge="1" parent="1">
                    <mxGeometry width="50" height="50" relative="1" as="geometry">
                        <mxPoint x="730" y="80" as="sourcePoint"/>
                        <mxPoint x="730" y="20" as="targetPoint"/>
                    </mxGeometry>
                </mxCell>
                <mxCell id="18" value="cart" style="text;html=1;align=center;verticalAlign=middle;resizable=0;points=[];autosize=1;strokeColor=none;fillColor=none;" vertex="1" parent="1">
                    <mxGeometry x="750" y="35" width="40" height="30" as="geometry"/>
                </mxCell>
                <UserObject label="&lt;div class=&quot;grid h-16 w-full grid-cols-3 px-4&quot;&gt;&lt;div class=&quot;flex flex-col items-center justify-center justify-self-center p-2&quot;&gt;&lt;/div&gt;&lt;div class=&quot;flex items-center justify-self-end text-end&quot;&gt;&lt;span class=&quot;&quot; data-state=&quot;closed&quot;&gt;&lt;button class=&quot;hover:bg-token-main-surface-tertiary group-radix-state-open:bg-token-main-surface-tertiary rounded-sm p-2 font-semibold max-sm:p-1.5 text-token-text-secondary&quot;&gt;&lt;svg width=&quot;20&quot; height=&quot;20&quot; viewBox=&quot;0 0 20 20&quot; fill=&quot;currentColor&quot; xmlns=&quot;http://www.w3.org/2000/svg&quot;&gt;&lt;path d=&quot;M10.9153 1.83987L11.2942 1.88772L11.4749 1.91507C13.2633 2.24201 14.4107 4.01717 13.9749 5.78225L13.9261 5.95901L13.3987 7.6719C13.7708 7.67575 14.0961 7.68389 14.3792 7.70608C14.8737 7.74486 15.3109 7.82759 15.7015 8.03323L15.8528 8.11819C16.5966 8.56353 17.1278 9.29625 17.3167 10.1475L17.347 10.3096C17.403 10.69 17.3647 11.0832 17.2835 11.5098C17.2375 11.7517 17.1735 12.0212 17.096 12.3233L16.8255 13.3321L16.4456 14.7276C16.2076 15.6001 16.0438 16.2356 15.7366 16.7305L15.595 16.9346C15.2989 17.318 14.9197 17.628 14.4866 17.8408L14.2982 17.9258C13.6885 18.1774 12.9785 18.1651 11.9446 18.1651H7.33331C6.64422 18.1651 6.08726 18.1657 5.63702 18.1289C5.23638 18.0962 4.87565 18.031 4.53936 17.8867L4.39679 17.8203C3.87576 17.5549 3.43916 17.151 3.13507 16.6553L3.013 16.4366C2.82119 16.0599 2.74182 15.6541 2.7044 15.1963C2.66762 14.7461 2.66827 14.1891 2.66827 13.5V11.667C2.66827 10.9349 2.66214 10.4375 2.77569 10.0137L2.83722 9.81253C3.17599 8.81768 3.99001 8.05084 5.01397 7.77639L5.17706 7.73928C5.56592 7.66435 6.02595 7.66799 6.66632 7.66799C6.9429 7.66799 7.19894 7.52038 7.33624 7.2803L10.2562 2.16995L10.3118 2.08792C10.4544 1.90739 10.6824 1.81092 10.9153 1.83987ZM7.33136 14.167C7.33136 14.9841 7.33714 15.2627 7.39386 15.4746L7.42999 15.5918C7.62644 16.1686 8.09802 16.6134 8.69171 16.7725L8.87042 16.8067C9.07652 16.8323 9.38687 16.835 10.0003 16.835H11.9446C13.099 16.835 13.4838 16.8228 13.7903 16.6963L13.8997 16.6465C14.1508 16.5231 14.3716 16.3444 14.5433 16.1221L14.6155 16.0166C14.7769 15.7552 14.8968 15.3517 15.1624 14.378L15.5433 12.9824L15.8079 11.9922C15.8804 11.7102 15.9368 11.4711 15.9769 11.2608C16.0364 10.948 16.0517 10.7375 16.0394 10.5791L16.0179 10.4356C15.9156 9.97497 15.641 9.57381 15.2542 9.31253L15.0814 9.20999C14.9253 9.12785 14.6982 9.06544 14.2747 9.03225C13.8477 8.99881 13.2923 8.99807 12.5003 8.99807C12.2893 8.99807 12.0905 8.89822 11.9651 8.72854C11.8398 8.55879 11.8025 8.33942 11.8646 8.13772L12.6556 5.56741L12.7054 5.36331C12.8941 4.35953 12.216 3.37956 11.1878 3.2178L8.49054 7.93948C8.23033 8.39484 7.81431 8.72848 7.33136 8.88967V14.167ZM3.99835 13.5C3.99835 14.2111 3.99924 14.7044 4.03058 15.0879C4.06128 15.4636 4.11804 15.675 4.19854 15.833L4.26886 15.959C4.44517 16.2466 4.69805 16.4808 5.0003 16.6348L5.13019 16.6905C5.27397 16.7419 5.46337 16.7797 5.74542 16.8028C5.97772 16.8217 6.25037 16.828 6.58722 16.8311C6.41249 16.585 6.27075 16.3136 6.1712 16.0215L6.10968 15.8194C5.99614 15.3956 6.00128 14.899 6.00128 14.167V9.00296C5.79386 9.0067 5.65011 9.01339 5.53741 9.02737L5.3587 9.06057C4.76502 9.21965 4.29247 9.66448 4.09601 10.2412L4.06085 10.3584C4.00404 10.5705 3.99835 10.8493 3.99835 11.667V13.5Z&quot;&gt;&lt;/path&gt;&lt;/svg&gt;&lt;/button&gt;&lt;/span&gt;&lt;span class=&quot;&quot; data-state=&quot;closed&quot;&gt;&lt;button class=&quot;hover:bg-token-main-surface-tertiary group-radix-state-open:bg-token-main-surface-tertiary rounded-sm p-2 font-semibold max-sm:p-1.5 text-token-text-secondary&quot;&gt;&lt;svg width=&quot;20&quot; height=&quot;20&quot; viewBox=&quot;0 0 20 20&quot; fill=&quot;currentColor&quot; xmlns=&quot;http://www.w3.org/2000/svg&quot;&gt;&lt;path d=&quot;M12.6687 5.83304C12.6687 5.22006 12.6649 4.91019 12.6394 4.70413L12.6062 4.52542C12.4471 3.93179 12.0022 3.45922 11.4255 3.26272L11.3083 3.22757C11.0963 3.17075 10.8175 3.16507 9.99974 3.16507H8.0554C7.04558 3.16507 6.62456 3.17475 6.32982 3.26175L6.2097 3.30374C5.95005 3.41089 5.71908 3.57635 5.53392 3.78616L5.45677 3.87796C5.30475 4.0748 5.20336 4.33135 5.03392 4.91702L4.83763 5.6221L4.45677 7.01761C4.24829 7.78204 4.10326 8.31846 4.02318 8.73929C3.94374 9.15672 3.94298 9.39229 3.98119 9.56448L4.03587 9.75784C4.18618 10.1996 4.50043 10.5702 4.91771 10.7901L5.05052 10.8477C5.20009 10.9014 5.40751 10.9429 5.72533 10.9678C6.15231 11.0012 6.70771 11.002 7.49974 11.002C7.71076 11.002 7.90952 11.1018 8.0349 11.2715C8.14465 11.4201 8.18683 11.6067 8.15404 11.7862L8.13548 11.8623L7.34447 14.4326C7.01523 15.5033 7.71404 16.6081 8.81126 16.7813L11.5095 12.0606L11.5827 11.9405C11.8445 11.5461 12.2289 11.2561 12.6687 11.1094V5.83304ZM17.3318 8.33304C17.3318 8.97366 17.3364 9.43432 17.2615 9.82327L17.2234 9.98538C16.949 11.0094 16.1821 11.8233 15.1872 12.1621L14.9861 12.2237C14.5624 12.3372 14.0656 12.3321 13.3337 12.3321C13.0915 12.3321 12.8651 12.4453 12.7204 12.6348L12.6638 12.7198L9.74388 17.8301C9.61066 18.0631 9.35005 18.1935 9.08372 18.1602L8.70579 18.1123C6.75379 17.8682 5.49542 15.9213 6.07396 14.041L6.60033 12.3272C6.22861 12.3233 5.90377 12.3161 5.62083 12.294C5.18804 12.26 4.79914 12.1931 4.44701 12.0391L4.29857 11.9668C3.52688 11.5605 2.95919 10.8555 2.72533 10.0205L2.68333 9.85257C2.58769 9.42154 2.62379 8.97768 2.71654 8.49026C2.80865 8.00634 2.97082 7.41139 3.17357 6.668L3.55443 5.27249L3.74583 4.58011C3.9286 3.94171 4.10186 3.45682 4.40404 3.06546L4.53685 2.9053C4.85609 2.54372 5.25433 2.25896 5.70189 2.07425L5.93626 1.99222C6.49455 1.82612 7.15095 1.83499 8.0554 1.83499H12.6667C13.3558 1.83499 13.9128 1.83434 14.363 1.87112C14.8208 1.90854 15.2266 1.98789 15.6033 2.17972L15.821 2.30179C16.317 2.6059 16.7215 3.04226 16.987 3.56351L17.0535 3.70608C17.1977 4.04236 17.2629 4.40311 17.2956 4.80374C17.3324 5.25398 17.3318 5.81094 17.3318 6.50003V8.33304ZM13.9978 10.9961C14.3321 10.9901 14.5013 10.977 14.6413 10.9395L14.7585 10.9033C15.3353 10.7069 15.7801 10.2353 15.9392 9.64163L15.9724 9.46292C15.998 9.25682 16.0017 8.94657 16.0017 8.33304V6.50003C16.0017 5.78899 16.0008 5.29566 15.9695 4.91214C15.9464 4.6301 15.9086 4.44069 15.8572 4.2969L15.8015 4.16702C15.6475 3.86478 15.4133 3.6119 15.1257 3.43558L14.9997 3.36526C14.8418 3.28477 14.6302 3.228 14.2546 3.19729C14.0221 3.1783 13.7491 3.17109 13.4118 3.168C13.6267 3.47028 13.7914 3.81126 13.8904 4.18069L13.9275 4.34378C13.981 4.62163 13.9947 4.93582 13.9978 5.3262V10.9961Z&quot;&gt;&lt;/path&gt;&lt;/svg&gt;&lt;/button&gt;&lt;/span&gt;&lt;span class=&quot;&quot; data-state=&quot;closed&quot;&gt;&lt;button class=&quot;hover:bg-token-main-surface-tertiary group-radix-state-open:bg-token-main-surface-tertiary rounded-sm p-2 font-semibold max-sm:p-1.5 text-token-text-secondary&quot;&gt;&lt;svg width=&quot;20&quot; height=&quot;20&quot; viewBox=&quot;0 0 20 20&quot; fill=&quot;black&quot; xmlns=&quot;http://www.w3.org/2000/svg&quot; class=&quot;h-7 w-7 pe-1&quot;&gt;&lt;path d=&quot;M8.50905 16.2629L8.63503 16.3118L8.91237 16.4465C9.18007 16.5704 9.41683 16.6631 9.60866 16.7278C9.75081 16.7757 9.85219 16.8027 9.91628 16.8176L10.0003 16.8352L10.1341 16.8489C10.4371 16.9109 10.6653 17.1789 10.6653 17.5002C10.6652 17.8216 10.4371 18.0897 10.1341 18.1516L10.0003 18.1653L9.8196 18.1516C9.62705 18.1248 9.40252 18.0612 9.18386 17.9876C8.94363 17.9066 8.66213 17.7958 8.3528 17.6526L8.03542 17.4993L7.92116 17.426C7.67899 17.234 7.59677 16.8924 7.74147 16.6057C7.88635 16.3189 8.21062 16.1817 8.50905 16.2629ZM15.9964 14.1721C16.1874 13.9289 16.5293 13.8449 16.8167 13.9885C17.1449 14.1529 17.2777 14.5527 17.1135 14.8811L17.0081 15.0745C16.7437 15.52 16.3571 15.9172 15.8909 16.1799L15.7678 16.2336C15.4735 16.3284 15.1434 16.2068 14.9856 15.927C14.8053 15.607 14.9186 15.2011 15.2385 15.0208L15.343 14.9563C15.5828 14.7934 15.7907 14.5531 15.9241 14.2864L15.9964 14.1721ZM11.3899 13.9973C11.6068 13.76 11.9564 13.7154 12.2219 13.8743L12.3294 13.9544L12.5325 14.134C12.7405 14.3123 12.9648 14.4865 13.1975 14.6399C13.5038 14.8421 13.588 15.2543 13.386 15.5608C13.1839 15.8672 12.7717 15.9522 12.4651 15.7502C12.1771 15.5604 11.9078 15.3508 11.6653 15.1428L11.4329 14.9368L11.343 14.8362C11.161 14.5861 11.1733 14.2346 11.3899 13.9973ZM3.89284 12.7854C4.15743 12.6034 4.5069 12.6395 4.72976 12.8538L4.81765 12.9563L5.09597 13.342C5.2894 13.597 5.49846 13.8473 5.72194 14.092L6.06862 14.4544L6.15358 14.5588C6.32402 14.8168 6.29559 15.1675 6.06862 15.3948C5.84153 15.6219 5.49076 15.6508 5.23268 15.4807L5.12819 15.3948L4.73952 14.9895C4.48886 14.715 4.25441 14.4331 4.0364 14.1458L3.72194 13.7102L3.65749 13.592C3.53684 13.3074 3.62825 12.9676 3.89284 12.7854ZM15.4993 9.92603C15.8166 9.74157 16.2237 9.84904 16.4085 10.1663C16.6535 10.587 16.8614 11.007 17.0257 11.4211C17.1611 11.7625 16.994 12.149 16.6526 12.2844C16.3114 12.4196 15.9248 12.2535 15.7893 11.9124C15.6531 11.5689 15.4761 11.2079 15.2591 10.8352C15.0744 10.5179 15.182 10.1108 15.4993 9.92603ZM2.68679 7.66919C3.0534 7.68828 3.33549 8.00088 3.31667 8.36744C3.2922 8.83748 3.33403 9.34087 3.44362 9.86353C3.51895 10.2229 3.28835 10.5752 2.92897 10.6506C2.56969 10.726 2.21746 10.4961 2.14186 10.137C2.01123 9.51398 1.95753 8.89534 1.98854 8.29908C2.00763 7.93239 2.32013 7.65025 2.68679 7.66919ZM4.90456 4.0315C5.20754 3.96864 5.52274 4.12486 5.64968 4.42017C5.79462 4.75763 5.6385 5.14926 5.30104 5.29419L5.02663 5.42701C4.75959 5.57172 4.51665 5.75148 4.30104 5.96705L4.19655 6.05201C3.93849 6.22262 3.58796 6.19417 3.36061 5.96705C3.10092 5.70735 3.10092 5.28631 3.36061 5.02662L3.51784 4.87623C3.89316 4.53604 4.31766 4.26866 4.77663 4.07154L4.90456 4.0315ZM8.47194 3.80884L8.92214 3.91626L9.37429 4.05005L9.49733 4.10474C9.76632 4.25754 9.89962 4.58332 9.80007 4.88892C9.70043 5.19421 9.40116 5.37879 9.09401 5.344L8.96218 5.3147L8.57741 5.20044L8.1985 5.10962L8.0696 5.06959C7.78587 4.94661 7.61786 4.63696 7.68386 4.32252C7.74987 4.00817 8.02805 3.79281 8.33718 3.79419L8.47194 3.80884Z&quot;&gt;&lt;/path&gt;&lt;path d=&quot;M11.0019 10.4124C11.0017 9.63143 10.3679 8.99838 9.58685 8.99838C9.13262 8.99844 8.87576 9.11932 8.71478 9.25912C8.54358 9.40794 8.40876 9.64128 8.31537 9.98373C8.16688 10.5286 8.16056 11.1741 8.16693 11.8324C8.82534 11.8387 9.47057 11.8334 10.0156 11.6849C10.3585 11.5914 10.5923 11.4559 10.7411 11.2845C10.8809 11.1235 11.0019 10.8667 11.0019 10.4124ZM12.332 10.4124C12.332 11.1232 12.1335 11.7092 11.7451 12.1566C11.3656 12.5935 10.8608 12.833 10.3652 12.9681C9.41468 13.2271 8.24011 13.1576 7.50775 13.1576C7.14065 13.1575 6.84293 12.8596 6.84271 12.4925C6.84271 11.7601 6.77311 10.5847 7.03216 9.63412C7.16722 9.13875 7.40614 8.63455 7.84271 8.25521C8.28998 7.86677 8.87622 7.66837 9.58685 7.6683C11.1024 7.6683 12.3318 8.89689 12.332 10.4124Z&quot;&gt;&lt;/path&gt;&lt;path d=&quot;M15.5702 2.18415C16.2167 1.91473 16.9517 2.08241 17.4345 2.56501L17.5263 2.66559C17.9372 3.14606 18.0668 3.82581 17.8154 4.42927L17.7558 4.5572C16.489 7.00222 14.8025 8.9042 12.4658 10.5445L12.3476 10.6099C12.0641 10.7332 11.7236 10.6452 11.539 10.3824C11.328 10.0818 11.4005 9.66665 11.7011 9.45563L12.1005 9.16755C14.0623 7.71278 15.4843 6.0511 16.5751 3.94587L16.5966 3.89411C16.6311 3.78726 16.6135 3.66092 16.537 3.55622L16.4941 3.50641C16.3658 3.37813 16.1868 3.35607 16.0546 3.42438C13.809 4.58788 12.0673 6.12815 10.5439 8.29841C10.3329 8.59901 9.9187 8.67153 9.6181 8.46052C9.31754 8.2495 9.24499 7.83532 9.45599 7.53473C11.0963 5.19803 12.9973 3.51054 15.4423 2.24372L15.5702 2.18415Z&quot;&gt;&lt;/path&gt;&lt;/svg&gt;&lt;/button&gt;&lt;/span&gt;&lt;span class=&quot;&quot; data-state=&quot;closed&quot;&gt;&lt;button class=&quot;hover:bg-token-main-surface-tertiary group-radix-state-open:bg-token-main-surface-tertiary rounded-sm p-2 font-semibold max-sm:p-1.5 text-token-text-secondary&quot;&gt;&lt;svg width=&quot;20&quot; height=&quot;20&quot; viewBox=&quot;0 0 20 20&quot; fill=&quot;currentColor&quot; xmlns=&quot;http://www.w3.org/2000/svg&quot;&gt;&lt;path d=&quot;M2.66821 12.6663V12.5003C2.66821 12.1331 2.96598 11.8353 3.33325 11.8353C3.70052 11.8353 3.99829 12.1331 3.99829 12.5003V12.6663C3.99829 13.3772 3.9992 13.8707 4.03052 14.2542C4.0612 14.6298 4.11803 14.8413 4.19849 14.9993L4.2688 15.1263C4.44511 15.4137 4.69813 15.6481 5.00024 15.8021L5.13013 15.8577C5.2739 15.9092 5.46341 15.947 5.74536 15.97C6.12888 16.0014 6.62221 16.0013 7.33325 16.0013H12.6663C13.3771 16.0013 13.8707 16.0014 14.2542 15.97C14.6295 15.9394 14.8413 15.8825 14.9993 15.8021L15.1262 15.7308C15.4136 15.5545 15.6481 15.3014 15.802 14.9993L15.8577 14.8695C15.9091 14.7257 15.9469 14.536 15.97 14.2542C16.0013 13.8707 16.0012 13.3772 16.0012 12.6663V12.5003C16.0012 12.1332 16.2991 11.8355 16.6663 11.8353C17.0335 11.8353 17.3313 12.1331 17.3313 12.5003V12.6663C17.3313 13.3553 17.3319 13.9124 17.2952 14.3626C17.2624 14.7636 17.1974 15.1247 17.053 15.4613L16.9866 15.6038C16.7211 16.1248 16.3172 16.5605 15.8215 16.8646L15.6038 16.9866C15.227 17.1786 14.8206 17.2578 14.3625 17.2952C13.9123 17.332 13.3553 17.3314 12.6663 17.3314H7.33325C6.64416 17.3314 6.0872 17.332 5.63696 17.2952C5.23642 17.2625 4.87552 17.1982 4.53931 17.054L4.39673 16.9866C3.87561 16.7211 3.43911 16.3174 3.13501 15.8216L3.01294 15.6038C2.82097 15.2271 2.74177 14.8206 2.70435 14.3626C2.66758 13.9124 2.66821 13.3553 2.66821 12.6663ZM9.33521 3.33333C9.33521 2.96606 9.63298 2.66829 10.0002 2.66829C10.3674 2.66847 10.6653 2.96617 10.6653 3.33333V10.8939L12.8625 8.69661L12.967 8.61165C13.2252 8.44092 13.5766 8.46925 13.804 8.69661C14.0633 8.95628 14.0634 9.37744 13.804 9.63704L10.47 12.97C10.3453 13.0947 10.1765 13.1653 10.0002 13.1654C9.82388 13.1654 9.65425 13.0948 9.52954 12.97L6.19653 9.63704L6.11157 9.53255C5.94101 9.27441 5.96924 8.9239 6.19653 8.69661C6.42382 8.46932 6.77433 8.44109 7.03247 8.61165L7.13696 8.69661L9.33521 10.8949V3.33333Z&quot;&gt;&lt;/path&gt;&lt;/svg&gt;&lt;/button&gt;&lt;/span&gt;&lt;span class=&quot;&quot; data-state=&quot;closed&quot;&gt;&lt;button class=&quot;hover:bg-token-main-surface-tertiary group-radix-state-open:bg-token-main-surface-tertiary rounded-sm p-2 font-semibold max-sm:p-1.5 text-token-text-secondary&quot;&gt;&lt;svg width=&quot;20&quot; height=&quot;20&quot; viewBox=&quot;0 0 20 20&quot; fill=&quot;currentColor&quot; xmlns=&quot;http://www.w3.org/2000/svg&quot;&gt;&lt;path d=&quot;M2.66821 12.6663V12.5003C2.66821 12.1331 2.96598 11.8353 3.33325 11.8353C3.70052 11.8353 3.99829 12.1331 3.99829 12.5003V12.6663C3.99829 13.3772 3.9992 13.8707 4.03052 14.2542C4.0612 14.6298 4.11803 14.8413 4.19849 14.9993L4.2688 15.1263C4.44511 15.4137 4.69813 15.6481 5.00024 15.8021L5.13013 15.8577C5.2739 15.9092 5.46341 15.947 5.74536 15.97C6.12888 16.0014 6.62221 16.0013 7.33325 16.0013H12.6663C13.3771 16.0013 13.8707 16.0014 14.2542 15.97C14.6295 15.9394 14.8413 15.8825 14.9993 15.8021L15.1262 15.7308C15.4136 15.5545 15.6481 15.3014 15.802 14.9993L15.8577 14.8695C15.9091 14.7257 15.9469 14.536 15.97 14.2542C16.0013 13.8707 16.0012 13.3772 16.0012 12.6663V12.5003C16.0012 12.1332 16.2991 11.8355 16.6663 11.8353C17.0335 11.8353 17.3313 12.1331 17.3313 12.5003V12.6663C17.3313 13.3553 17.3319 13.9124 17.2952 14.3626C17.2624 14.7636 17.1974 15.1247 17.053 15.4613L16.9866 15.6038C16.7211 16.1248 16.3172 16.5605 15.8215 16.8646L15.6038 16.9866C15.227 17.1786 14.8206 17.2578 14.3625 17.2952C13.9123 17.332 13.3553 17.3314 12.6663 17.3314H7.33325C6.64416 17.3314 6.0872 17.332 5.63696 17.2952C5.23642 17.2625 4.87552 17.1982 4.53931 17.054L4.39673 16.9866C3.87561 16.7211 3.43911 16.3174 3.13501 15.8216L3.01294 15.6038C2.82097 15.2271 2.74177 14.8206 2.70435 14.3626C2.66758 13.9124 2.66821 13.3553 2.66821 12.6663ZM9.33521 12.5003V4.9388L7.13696 7.13704C6.87732 7.39668 6.45625 7.39657 6.19653 7.13704C5.93684 6.87734 5.93684 6.45631 6.19653 6.19661L9.52954 2.86263L9.6311 2.77962C9.73949 2.70742 9.86809 2.66829 10.0002 2.66829C10.1763 2.66838 10.3454 2.73819 10.47 2.86263L13.804 6.19661C14.0633 6.45628 14.0634 6.87744 13.804 7.13704C13.5443 7.39674 13.1222 7.39674 12.8625 7.13704L10.6653 4.93977V12.5003C10.6651 12.8673 10.3673 13.1652 10.0002 13.1654C9.63308 13.1654 9.33538 12.8674 9.33521 12.5003Z&quot;&gt;&lt;/path&gt;&lt;/svg&gt;&lt;/button&gt;&lt;/span&gt;&lt;/div&gt;&lt;/div&gt;&lt;div class=&quot;relative flex w-full grow items-center justify-center&quot;&gt;&lt;div class=&quot;absolute&quot;&gt;&lt;img alt=&quot;&quot; width=&quot;1536&quot; height=&quot;1024&quot; class=&quot;h-full w-full w-fit opacity-100&quot; src=&quot;https://sdmntprnorthcentralus.oaiusercontent.com/files/00000000-63ec-622f-8653-5ae6ffd9b7a9/raw?se=2025-06-26T08%3A06%3A43Z&amp;amp;sp=r&amp;amp;sv=2024-08-04&amp;amp;sr=b&amp;amp;scid=1d51f013-e1ef-5776-bb86-8049fae60872&amp;amp;skoid=e9d2f8b1-028a-4cff-8eb1-d0e66fbefcca&amp;amp;sktid=a48cca56-e6da-484e-a814-9c849652bcb3&amp;amp;skt=2025-06-25T13%3A17%3A03Z&amp;amp;ske=2025-06-26T13%3A17%3A03Z&amp;amp;sks=b&amp;amp;skv=2024-08-04&amp;amp;sig=HLUyN%2BCLMxk4vFxfCdXqV8bQut72uYGit1HqnAxuz4k%3D&quot;&gt;&lt;div class=&quot;absolute inset-0 hidden&quot;&gt;&lt;div class=&quot;relative h-full w-full cursor-none&quot;&gt;&lt;canvas width=&quot;1536&quot; height=&quot;1024&quot; class=&quot;h-full w-full&quot; data-paper-hidpi=&quot;off&quot; id=&quot;paper-view-0&quot;&gt;&lt;/canvas&gt;&lt;/div&gt;&lt;/div&gt;&lt;div class=&quot;bg-token-main-surface-primary absolute inset-0 flex items-center justify-center transition-opacity duration-1000 pointer-events-none opacity-0&quot;&gt;&lt;/div&gt;&lt;/div&gt;&lt;/div&gt;" link="&lt;div class=&quot;grid h-16 w-full grid-cols-3 px-4&quot;&gt;&lt;div class=&quot;flex flex-col items-center justify-center justify-self-center p-2&quot;&gt;&lt;/div&gt;&lt;div class=&quot;flex items-center justify-self-end text-end&quot;&gt;&lt;span class=&quot;&quot; data-state=&quot;closed&quot;&gt;&lt;button class=&quot;hover:bg-token-main-surface-tertiary group-radix-state-open:bg-token-main-surface-tertiary rounded-sm p-2 font-semibold max-sm:p-1.5 text-token-text-secondary&quot;&gt;&lt;svg width=&quot;20&quot; height=&quot;20&quot; viewBox=&quot;0 0 20 20&quot; fill=&quot;currentColor&quot; xmlns=&quot;http://www.w3.org/2000/svg&quot;&gt;&lt;path d=&quot;M10.9153 1.83987L11.2942 1.88772L11.4749 1.91507C13.2633 2.24201 14.4107 4.01717 13.9749 5.78225L13.9261 5.95901L13.3987 7.6719C13.7708 7.67575 14.0961 7.68389 14.3792 7.70608C14.8737 7.74486 15.3109 7.82759 15.7015 8.03323L15.8528 8.11819C16.5966 8.56353 17.1278 9.29625 17.3167 10.1475L17.347 10.3096C17.403 10.69 17.3647 11.0832 17.2835 11.5098C17.2375 11.7517 17.1735 12.0212 17.096 12.3233L16.8255 13.3321L16.4456 14.7276C16.2076 15.6001 16.0438 16.2356 15.7366 16.7305L15.595 16.9346C15.2989 17.318 14.9197 17.628 14.4866 17.8408L14.2982 17.9258C13.6885 18.1774 12.9785 18.1651 11.9446 18.1651H7.33331C6.64422 18.1651 6.08726 18.1657 5.63702 18.1289C5.23638 18.0962 4.87565 18.031 4.53936 17.8867L4.39679 17.8203C3.87576 17.5549 3.43916 17.151 3.13507 16.6553L3.013 16.4366C2.82119 16.0599 2.74182 15.6541 2.7044 15.1963C2.66762 14.7461 2.66827 14.1891 2.66827 13.5V11.667C2.66827 10.9349 2.66214 10.4375 2.77569 10.0137L2.83722 9.81253C3.17599 8.81768 3.99001 8.05084 5.01397 7.77639L5.17706 7.73928C5.56592 7.66435 6.02595 7.66799 6.66632 7.66799C6.9429 7.66799 7.19894 7.52038 7.33624 7.2803L10.2562 2.16995L10.3118 2.08792C10.4544 1.90739 10.6824 1.81092 10.9153 1.83987ZM7.33136 14.167C7.33136 14.9841 7.33714 15.2627 7.39386 15.4746L7.42999 15.5918C7.62644 16.1686 8.09802 16.6134 8.69171 16.7725L8.87042 16.8067C9.07652 16.8323 9.38687 16.835 10.0003 16.835H11.9446C13.099 16.835 13.4838 16.8228 13.7903 16.6963L13.8997 16.6465C14.1508 16.5231 14.3716 16.3444 14.5433 16.1221L14.6155 16.0166C14.7769 15.7552 14.8968 15.3517 15.1624 14.378L15.5433 12.9824L15.8079 11.9922C15.8804 11.7102 15.9368 11.4711 15.9769 11.2608C16.0364 10.948 16.0517 10.7375 16.0394 10.5791L16.0179 10.4356C15.9156 9.97497 15.641 9.57381 15.2542 9.31253L15.0814 9.20999C14.9253 9.12785 14.6982 9.06544 14.2747 9.03225C13.8477 8.99881 13.2923 8.99807 12.5003 8.99807C12.2893 8.99807 12.0905 8.89822 11.9651 8.72854C11.8398 8.55879 11.8025 8.33942 11.8646 8.13772L12.6556 5.56741L12.7054 5.36331C12.8941 4.35953 12.216 3.37956 11.1878 3.2178L8.49054 7.93948C8.23033 8.39484 7.81431 8.72848 7.33136 8.88967V14.167ZM3.99835 13.5C3.99835 14.2111 3.99924 14.7044 4.03058 15.0879C4.06128 15.4636 4.11804 15.675 4.19854 15.833L4.26886 15.959C4.44517 16.2466 4.69805 16.4808 5.0003 16.6348L5.13019 16.6905C5.27397 16.7419 5.46337 16.7797 5.74542 16.8028C5.97772 16.8217 6.25037 16.828 6.58722 16.8311C6.41249 16.585 6.27075 16.3136 6.1712 16.0215L6.10968 15.8194C5.99614 15.3956 6.00128 14.899 6.00128 14.167V9.00296C5.79386 9.0067 5.65011 9.01339 5.53741 9.02737L5.3587 9.06057C4.76502 9.21965 4.29247 9.66448 4.09601 10.2412L4.06085 10.3584C4.00404 10.5705 3.99835 10.8493 3.99835 11.667V13.5Z&quot;&gt;&lt;/path&gt;&lt;/svg&gt;&lt;/button&gt;&lt;/span&gt;&lt;span class=&quot;&quot; data-state=&quot;closed&quot;&gt;&lt;button class=&quot;hover:bg-token-main-surface-tertiary group-radix-state-open:bg-token-main-surface-tertiary rounded-sm p-2 font-semibold max-sm:p-1.5 text-token-text-secondary&quot;&gt;&lt;svg width=&quot;20&quot; height=&quot;20&quot; viewBox=&quot;0 0 20 20&quot; fill=&quot;currentColor&quot; xmlns=&quot;http://www.w3.org/2000/svg&quot;&gt;&lt;path d=&quot;M12.6687 5.83304C12.6687 5.22006 12.6649 4.91019 12.6394 4.70413L12.6062 4.52542C12.4471 3.93179 12.0022 3.45922 11.4255 3.26272L11.3083 3.22757C11.0963 3.17075 10.8175 3.16507 9.99974 3.16507H8.0554C7.04558 3.16507 6.62456 3.17475 6.32982 3.26175L6.2097 3.30374C5.95005 3.41089 5.71908 3.57635 5.53392 3.78616L5.45677 3.87796C5.30475 4.0748 5.20336 4.33135 5.03392 4.91702L4.83763 5.6221L4.45677 7.01761C4.24829 7.78204 4.10326 8.31846 4.02318 8.73929C3.94374 9.15672 3.94298 9.39229 3.98119 9.56448L4.03587 9.75784C4.18618 10.1996 4.50043 10.5702 4.91771 10.7901L5.05052 10.8477C5.20009 10.9014 5.40751 10.9429 5.72533 10.9678C6.15231 11.0012 6.70771 11.002 7.49974 11.002C7.71076 11.002 7.90952 11.1018 8.0349 11.2715C8.14465 11.4201 8.18683 11.6067 8.15404 11.7862L8.13548 11.8623L7.34447 14.4326C7.01523 15.5033 7.71404 16.6081 8.81126 16.7813L11.5095 12.0606L11.5827 11.9405C11.8445 11.5461 12.2289 11.2561 12.6687 11.1094V5.83304ZM17.3318 8.33304C17.3318 8.97366 17.3364 9.43432 17.2615 9.82327L17.2234 9.98538C16.949 11.0094 16.1821 11.8233 15.1872 12.1621L14.9861 12.2237C14.5624 12.3372 14.0656 12.3321 13.3337 12.3321C13.0915 12.3321 12.8651 12.4453 12.7204 12.6348L12.6638 12.7198L9.74388 17.8301C9.61066 18.0631 9.35005 18.1935 9.08372 18.1602L8.70579 18.1123C6.75379 17.8682 5.49542 15.9213 6.07396 14.041L6.60033 12.3272C6.22861 12.3233 5.90377 12.3161 5.62083 12.294C5.18804 12.26 4.79914 12.1931 4.44701 12.0391L4.29857 11.9668C3.52688 11.5605 2.95919 10.8555 2.72533 10.0205L2.68333 9.85257C2.58769 9.42154 2.62379 8.97768 2.71654 8.49026C2.80865 8.00634 2.97082 7.41139 3.17357 6.668L3.55443 5.27249L3.74583 4.58011C3.9286 3.94171 4.10186 3.45682 4.40404 3.06546L4.53685 2.9053C4.85609 2.54372 5.25433 2.25896 5.70189 2.07425L5.93626 1.99222C6.49455 1.82612 7.15095 1.83499 8.0554 1.83499H12.6667C13.3558 1.83499 13.9128 1.83434 14.363 1.87112C14.8208 1.90854 15.2266 1.98789 15.6033 2.17972L15.821 2.30179C16.317 2.6059 16.7215 3.04226 16.987 3.56351L17.0535 3.70608C17.1977 4.04236 17.2629 4.40311 17.2956 4.80374C17.3324 5.25398 17.3318 5.81094 17.3318 6.50003V8.33304ZM13.9978 10.9961C14.3321 10.9901 14.5013 10.977 14.6413 10.9395L14.7585 10.9033C15.3353 10.7069 15.7801 10.2353 15.9392 9.64163L15.9724 9.46292C15.998 9.25682 16.0017 8.94657 16.0017 8.33304V6.50003C16.0017 5.78899 16.0008 5.29566 15.9695 4.91214C15.9464 4.6301 15.9086 4.44069 15.8572 4.2969L15.8015 4.16702C15.6475 3.86478 15.4133 3.6119 15.1257 3.43558L14.9997 3.36526C14.8418 3.28477 14.6302 3.228 14.2546 3.19729C14.0221 3.1783 13.7491 3.17109 13.4118 3.168C13.6267 3.47028 13.7914 3.81126 13.8904 4.18069L13.9275 4.34378C13.981 4.62163 13.9947 4.93582 13.9978 5.3262V10.9961Z&quot;&gt;&lt;/path&gt;&lt;/svg&gt;&lt;/button&gt;&lt;/span&gt;&lt;span class=&quot;&quot; data-state=&quot;closed&quot;&gt;&lt;button class=&quot;hover:bg-token-main-surface-tertiary group-radix-state-open:bg-token-main-surface-tertiary rounded-sm p-2 font-semibold max-sm:p-1.5 text-token-text-secondary&quot;&gt;&lt;svg width=&quot;20&quot; height=&quot;20&quot; viewBox=&quot;0 0 20 20&quot; fill=&quot;black&quot; xmlns=&quot;http://www.w3.org/2000/svg&quot; class=&quot;h-7 w-7 pe-1&quot;&gt;&lt;path d=&quot;M8.50905 16.2629L8.63503 16.3118L8.91237 16.4465C9.18007 16.5704 9.41683 16.6631 9.60866 16.7278C9.75081 16.7757 9.85219 16.8027 9.91628 16.8176L10.0003 16.8352L10.1341 16.8489C10.4371 16.9109 10.6653 17.1789 10.6653 17.5002C10.6652 17.8216 10.4371 18.0897 10.1341 18.1516L10.0003 18.1653L9.8196 18.1516C9.62705 18.1248 9.40252 18.0612 9.18386 17.9876C8.94363 17.9066 8.66213 17.7958 8.3528 17.6526L8.03542 17.4993L7.92116 17.426C7.67899 17.234 7.59677 16.8924 7.74147 16.6057C7.88635 16.3189 8.21062 16.1817 8.50905 16.2629ZM15.9964 14.1721C16.1874 13.9289 16.5293 13.8449 16.8167 13.9885C17.1449 14.1529 17.2777 14.5527 17.1135 14.8811L17.0081 15.0745C16.7437 15.52 16.3571 15.9172 15.8909 16.1799L15.7678 16.2336C15.4735 16.3284 15.1434 16.2068 14.9856 15.927C14.8053 15.607 14.9186 15.2011 15.2385 15.0208L15.343 14.9563C15.5828 14.7934 15.7907 14.5531 15.9241 14.2864L15.9964 14.1721ZM11.3899 13.9973C11.6068 13.76 11.9564 13.7154 12.2219 13.8743L12.3294 13.9544L12.5325 14.134C12.7405 14.3123 12.9648 14.4865 13.1975 14.6399C13.5038 14.8421 13.588 15.2543 13.386 15.5608C13.1839 15.8672 12.7717 15.9522 12.4651 15.7502C12.1771 15.5604 11.9078 15.3508 11.6653 15.1428L11.4329 14.9368L11.343 14.8362C11.161 14.5861 11.1733 14.2346 11.3899 13.9973ZM3.89284 12.7854C4.15743 12.6034 4.5069 12.6395 4.72976 12.8538L4.81765 12.9563L5.09597 13.342C5.2894 13.597 5.49846 13.8473 5.72194 14.092L6.06862 14.4544L6.15358 14.5588C6.32402 14.8168 6.29559 15.1675 6.06862 15.3948C5.84153 15.6219 5.49076 15.6508 5.23268 15.4807L5.12819 15.3948L4.73952 14.9895C4.48886 14.715 4.25441 14.4331 4.0364 14.1458L3.72194 13.7102L3.65749 13.592C3.53684 13.3074 3.62825 12.9676 3.89284 12.7854ZM15.4993 9.92603C15.8166 9.74157 16.2237 9.84904 16.4085 10.1663C16.6535 10.587 16.8614 11.007 17.0257 11.4211C17.1611 11.7625 16.994 12.149 16.6526 12.2844C16.3114 12.4196 15.9248 12.2535 15.7893 11.9124C15.6531 11.5689 15.4761 11.2079 15.2591 10.8352C15.0744 10.5179 15.182 10.1108 15.4993 9.92603ZM2.68679 7.66919C3.0534 7.68828 3.33549 8.00088 3.31667 8.36744C3.2922 8.83748 3.33403 9.34087 3.44362 9.86353C3.51895 10.2229 3.28835 10.5752 2.92897 10.6506C2.56969 10.726 2.21746 10.4961 2.14186 10.137C2.01123 9.51398 1.95753 8.89534 1.98854 8.29908C2.00763 7.93239 2.32013 7.65025 2.68679 7.66919ZM4.90456 4.0315C5.20754 3.96864 5.52274 4.12486 5.64968 4.42017C5.79462 4.75763 5.6385 5.14926 5.30104 5.29419L5.02663 5.42701C4.75959 5.57172 4.51665 5.75148 4.30104 5.96705L4.19655 6.05201C3.93849 6.22262 3.58796 6.19417 3.36061 5.96705C3.10092 5.70735 3.10092 5.28631 3.36061 5.02662L3.51784 4.87623C3.89316 4.53604 4.31766 4.26866 4.77663 4.07154L4.90456 4.0315ZM8.47194 3.80884L8.92214 3.91626L9.37429 4.05005L9.49733 4.10474C9.76632 4.25754 9.89962 4.58332 9.80007 4.88892C9.70043 5.19421 9.40116 5.37879 9.09401 5.344L8.96218 5.3147L8.57741 5.20044L8.1985 5.10962L8.0696 5.06959C7.78587 4.94661 7.61786 4.63696 7.68386 4.32252C7.74987 4.00817 8.02805 3.79281 8.33718 3.79419L8.47194 3.80884Z&quot;&gt;&lt;/path&gt;&lt;path d=&quot;M11.0019 10.4124C11.0017 9.63143 10.3679 8.99838 9.58685 8.99838C9.13262 8.99844 8.87576 9.11932 8.71478 9.25912C8.54358 9.40794 8.40876 9.64128 8.31537 9.98373C8.16688 10.5286 8.16056 11.1741 8.16693 11.8324C8.82534 11.8387 9.47057 11.8334 10.0156 11.6849C10.3585 11.5914 10.5923 11.4559 10.7411 11.2845C10.8809 11.1235 11.0019 10.8667 11.0019 10.4124ZM12.332 10.4124C12.332 11.1232 12.1335 11.7092 11.7451 12.1566C11.3656 12.5935 10.8608 12.833 10.3652 12.9681C9.41468 13.2271 8.24011 13.1576 7.50775 13.1576C7.14065 13.1575 6.84293 12.8596 6.84271 12.4925C6.84271 11.7601 6.77311 10.5847 7.03216 9.63412C7.16722 9.13875 7.40614 8.63455 7.84271 8.25521C8.28998 7.86677 8.87622 7.66837 9.58685 7.6683C11.1024 7.6683 12.3318 8.89689 12.332 10.4124Z&quot;&gt;&lt;/path&gt;&lt;path d=&quot;M15.5702 2.18415C16.2167 1.91473 16.9517 2.08241 17.4345 2.56501L17.5263 2.66559C17.9372 3.14606 18.0668 3.82581 17.8154 4.42927L17.7558 4.5572C16.489 7.00222 14.8025 8.9042 12.4658 10.5445L12.3476 10.6099C12.0641 10.7332 11.7236 10.6452 11.539 10.3824C11.328 10.0818 11.4005 9.66665 11.7011 9.45563L12.1005 9.16755C14.0623 7.71278 15.4843 6.0511 16.5751 3.94587L16.5966 3.89411C16.6311 3.78726 16.6135 3.66092 16.537 3.55622L16.4941 3.50641C16.3658 3.37813 16.1868 3.35607 16.0546 3.42438C13.809 4.58788 12.0673 6.12815 10.5439 8.29841C10.3329 8.59901 9.9187 8.67153 9.6181 8.46052C9.31754 8.2495 9.24499 7.83532 9.45599 7.53473C11.0963 5.19803 12.9973 3.51054 15.4423 2.24372L15.5702 2.18415Z&quot;&gt;&lt;/path&gt;&lt;/svg&gt;&lt;/button&gt;&lt;/span&gt;&lt;span class=&quot;&quot; data-state=&quot;closed&quot;&gt;&lt;button class=&quot;hover:bg-token-main-surface-tertiary group-radix-state-open:bg-token-main-surface-tertiary rounded-sm p-2 font-semibold max-sm:p-1.5 text-token-text-secondary&quot;&gt;&lt;svg width=&quot;20&quot; height=&quot;20&quot; viewBox=&quot;0 0 20 20&quot; fill=&quot;currentColor&quot; xmlns=&quot;http://www.w3.org/2000/svg&quot;&gt;&lt;path d=&quot;M2.66821 12.6663V12.5003C2.66821 12.1331 2.96598 11.8353 3.33325 11.8353C3.70052 11.8353 3.99829 12.1331 3.99829 12.5003V12.6663C3.99829 13.3772 3.9992 13.8707 4.03052 14.2542C4.0612 14.6298 4.11803 14.8413 4.19849 14.9993L4.2688 15.1263C4.44511 15.4137 4.69813 15.6481 5.00024 15.8021L5.13013 15.8577C5.2739 15.9092 5.46341 15.947 5.74536 15.97C6.12888 16.0014 6.62221 16.0013 7.33325 16.0013H12.6663C13.3771 16.0013 13.8707 16.0014 14.2542 15.97C14.6295 15.9394 14.8413 15.8825 14.9993 15.8021L15.1262 15.7308C15.4136 15.5545 15.6481 15.3014 15.802 14.9993L15.8577 14.8695C15.9091 14.7257 15.9469 14.536 15.97 14.2542C16.0013 13.8707 16.0012 13.3772 16.0012 12.6663V12.5003C16.0012 12.1332 16.2991 11.8355 16.6663 11.8353C17.0335 11.8353 17.3313 12.1331 17.3313 12.5003V12.6663C17.3313 13.3553 17.3319 13.9124 17.2952 14.3626C17.2624 14.7636 17.1974 15.1247 17.053 15.4613L16.9866 15.6038C16.7211 16.1248 16.3172 16.5605 15.8215 16.8646L15.6038 16.9866C15.227 17.1786 14.8206 17.2578 14.3625 17.2952C13.9123 17.332 13.3553 17.3314 12.6663 17.3314H7.33325C6.64416 17.3314 6.0872 17.332 5.63696 17.2952C5.23642 17.2625 4.87552 17.1982 4.53931 17.054L4.39673 16.9866C3.87561 16.7211 3.43911 16.3174 3.13501 15.8216L3.01294 15.6038C2.82097 15.2271 2.74177 14.8206 2.70435 14.3626C2.66758 13.9124 2.66821 13.3553 2.66821 12.6663ZM9.33521 3.33333C9.33521 2.96606 9.63298 2.66829 10.0002 2.66829C10.3674 2.66847 10.6653 2.96617 10.6653 3.33333V10.8939L12.8625 8.69661L12.967 8.61165C13.2252 8.44092 13.5766 8.46925 13.804 8.69661C14.0633 8.95628 14.0634 9.37744 13.804 9.63704L10.47 12.97C10.3453 13.0947 10.1765 13.1653 10.0002 13.1654C9.82388 13.1654 9.65425 13.0948 9.52954 12.97L6.19653 9.63704L6.11157 9.53255C5.94101 9.27441 5.96924 8.9239 6.19653 8.69661C6.42382 8.46932 6.77433 8.44109 7.03247 8.61165L7.13696 8.69661L9.33521 10.8949V3.33333Z&quot;&gt;&lt;/path&gt;&lt;/svg&gt;&lt;/button&gt;&lt;/span&gt;&lt;span class=&quot;&quot; data-state=&quot;closed&quot;&gt;&lt;button class=&quot;hover:bg-token-main-surface-tertiary group-radix-state-open:bg-token-main-surface-tertiary rounded-sm p-2 font-semibold max-sm:p-1.5 text-token-text-secondary&quot;&gt;&lt;svg width=&quot;20&quot; height=&quot;20&quot; viewBox=&quot;0 0 20 20&quot; fill=&quot;currentColor&quot; xmlns=&quot;http://www.w3.org/2000/svg&quot;&gt;&lt;path d=&quot;M2.66821 12.6663V12.5003C2.66821 12.1331 2.96598 11.8353 3.33325 11.8353C3.70052 11.8353 3.99829 12.1331 3.99829 12.5003V12.6663C3.99829 13.3772 3.9992 13.8707 4.03052 14.2542C4.0612 14.6298 4.11803 14.8413 4.19849 14.9993L4.2688 15.1263C4.44511 15.4137 4.69813 15.6481 5.00024 15.8021L5.13013 15.8577C5.2739 15.9092 5.46341 15.947 5.74536 15.97C6.12888 16.0014 6.62221 16.0013 7.33325 16.0013H12.6663C13.3771 16.0013 13.8707 16.0014 14.2542 15.97C14.6295 15.9394 14.8413 15.8825 14.9993 15.8021L15.1262 15.7308C15.4136 15.5545 15.6481 15.3014 15.802 14.9993L15.8577 14.8695C15.9091 14.7257 15.9469 14.536 15.97 14.2542C16.0013 13.8707 16.0012 13.3772 16.0012 12.6663V12.5003C16.0012 12.1332 16.2991 11.8355 16.6663 11.8353C17.0335 11.8353 17.3313 12.1331 17.3313 12.5003V12.6663C17.3313 13.3553 17.3319 13.9124 17.2952 14.3626C17.2624 14.7636 17.1974 15.1247 17.053 15.4613L16.9866 15.6038C16.7211 16.1248 16.3172 16.5605 15.8215 16.8646L15.6038 16.9866C15.227 17.1786 14.8206 17.2578 14.3625 17.2952C13.9123 17.332 13.3553 17.3314 12.6663 17.3314H7.33325C6.64416 17.3314 6.0872 17.332 5.63696 17.2952C5.23642 17.2625 4.87552 17.1982 4.53931 17.054L4.39673 16.9866C3.87561 16.7211 3.43911 16.3174 3.13501 15.8216L3.01294 15.6038C2.82097 15.2271 2.74177 14.8206 2.70435 14.3626C2.66758 13.9124 2.66821 13.3553 2.66821 12.6663ZM9.33521 12.5003V4.9388L7.13696 7.13704C6.87732 7.39668 6.45625 7.39657 6.19653 7.13704C5.93684 6.87734 5.93684 6.45631 6.19653 6.19661L9.52954 2.86263L9.6311 2.77962C9.73949 2.70742 9.86809 2.66829 10.0002 2.66829C10.1763 2.66838 10.3454 2.73819 10.47 2.86263L13.804 6.19661C14.0633 6.45628 14.0634 6.87744 13.804 7.13704C13.5443 7.39674 13.1222 7.39674 12.8625 7.13704L10.6653 4.93977V12.5003C10.6651 12.8673 10.3673 13.1652 10.0002 13.1654C9.63308 13.1654 9.33538 12.8674 9.33521 12.5003Z&quot;&gt;&lt;/path&gt;&lt;/svg&gt;&lt;/button&gt;&lt;/span&gt;&lt;/div&gt;&lt;/div&gt;&lt;div class=&quot;relative flex w-full grow items-center justify-center&quot;&gt;&lt;div class=&quot;absolute&quot;&gt;&lt;img alt=&quot;&quot; width=&quot;1536&quot; height=&quot;1024&quot; class=&quot;h-full w-full w-fit opacity-100&quot; src=&quot;https://sdmntprnorthcentralus.oaiusercontent.com/files/00000000-63ec-622f-8653-5ae6ffd9b7a9/raw?se=2025-06-26T08%3A06%3A43Z&amp;amp;sp=r&amp;amp;sv=2024-08-04&amp;amp;sr=b&amp;amp;scid=1d51f013-e1ef-5776-bb86-8049fae60872&amp;amp;skoid=e9d2f8b1-028a-4cff-8eb1-d0e66fbefcca&amp;amp;sktid=a48cca56-e6da-484e-a814-9c849652bcb3&amp;amp;skt=2025-06-25T13%3A17%3A03Z&amp;amp;ske=2025-06-26T13%3A17%3A03Z&amp;amp;sks=b&amp;amp;skv=2024-08-04&amp;amp;sig=HLUyN%2BCLMxk4vFxfCdXqV8bQut72uYGit1HqnAxuz4k%3D&quot;&gt;&lt;div class=&quot;absolute inset-0 hidden&quot;&gt;&lt;div class=&quot;relative h-full w-full cursor-none&quot;&gt;&lt;canvas width=&quot;1536&quot; height=&quot;1024&quot; class=&quot;h-full w-full&quot; data-paper-hidpi=&quot;off&quot; id=&quot;paper-view-0&quot;&gt;&lt;/canvas&gt;&lt;/div&gt;&lt;/div&gt;&lt;div class=&quot;bg-token-main-surface-primary absolute inset-0 flex items-center justify-center transition-opacity duration-1000 pointer-events-none opacity-0&quot;&gt;&lt;/div&gt;&lt;/div&gt;&lt;/div&gt;" id="19">
                    <mxCell style="text;whiteSpace=wrap;html=1;" vertex="1" parent="1">
                        <mxGeometry x="-360" y="610" width="490" height="1820" as="geometry"/>
                    </mxCell>
                </UserObject>
            </root>
        </mxGraphModel>
    </diagram>
</mxfile>